<svg id="Layer_1" data-name="Layer 1" xmlns="http://www.w3.org/2000/svg" xmlns:xlink="http://www.w3.org/1999/xlink" viewBox="0 0 297.56 295.12"><defs><style>.cls-1{fill:#ece5e1;}.cls-2{fill:url(#linear-gradient);}.cls-3{fill:#7c736c;}.cls-4{fill:url(#linear-gradient-2);}.cls-5{fill:url(#linear-gradient-3);}.cls-6{fill:url(#linear-gradient-4);}.cls-7{fill:url(#linear-gradient-5);}</style><linearGradient id="linear-gradient" x1="48.05" y1="-437.74" x2="249.51" y2="-586.97" gradientTransform="matrix(1, 0, 0, -1, 0, -364.94)" gradientUnits="userSpaceOnUse"><stop offset="0" stop-color="#fff"/><stop offset="1" stop-color="#faf7f5"/></linearGradient><linearGradient id="linear-gradient-2" x1="148.78" y1="-586.87" x2="148.78" y2="-622.06" gradientTransform="matrix(1, 0, 0, -1, 0, -364.94)" gradientUnits="userSpaceOnUse"><stop offset="0" stop-color="#534c48"/><stop offset="1" stop-color="#534c48" stop-opacity="0"/></linearGradient><linearGradient id="linear-gradient-3" x1="148.78" y1="-497.74" x2="148.78" y2="-547.87" gradientTransform="matrix(1, 0, 0, -1, 0, -364.94)" gradientUnits="userSpaceOnUse"><stop offset="0" stop-color="#534c48"/><stop offset="1" stop-color="#7c736c"/></linearGradient><linearGradient id="linear-gradient-4" x1="87.18" y1="-486.46" x2="210.38" y2="-486.46" gradientTransform="matrix(1, 0, 0, -1, 0, -364.94)" gradientUnits="userSpaceOnUse"><stop offset="0" stop-color="#534c48"/><stop offset="1" stop-color="#a69990"/></linearGradient><linearGradient id="linear-gradient-5" x1="87.44" y1="-517" x2="87.44" y2="-543.55" gradientTransform="matrix(1, 0, 0, -1, 0, -364.94)" gradientUnits="userSpaceOnUse"><stop offset="0.19" stop-color="#7c736c"/><stop offset="1" stop-color="#534c48"/></linearGradient></defs><path class="cls-1" d="M148.78,7.56l140,140-140,140-140-140Z"/><path class="cls-2" d="M48,72.89h201.6v149H48Z"/><path class="cls-3" d="M48,209.16h201.6v13.07H48Z"/><path class="cls-4" d="M165.36,257.11,162,221.93H135.52l-3.32,35.18Z"/><path class="cls-3" d="M196.86,261.43l-3.32-10H104l-3.32,10Z"/><path class="cls-5" d="M113.63,132.8v32.53l35.15,17.59,35.15-17.59V132.8"/><path class="cls-6" d="M148.78,147.74l61.34-26.22L148.78,95.29,87.44,121.52Z"/><path class="cls-3" d="M87.44,121.52,89.76,167h-5Z"/><path class="cls-7" d="M87.44,152.05,74.17,178.61H100.7Z"/></svg>