<svg id="Layer_1" data-name="Layer 1" xmlns="http://www.w3.org/2000/svg" xmlns:xlink="http://www.w3.org/1999/xlink" viewBox="0 0 297.56 295.12"><defs><style>.cls-1{fill:#b8d1e9;}.cls-2{fill:#1f3850;isolation:isolate;opacity:0.5;}.cls-3{fill:#3e71a1;}.cls-4{fill:url(#linear-gradient);}.cls-5{fill:#edf4fa;}.cls-6{fill:url(#linear-gradient-2);}.cls-7{fill:url(#linear-gradient-3);}</style><linearGradient id="linear-gradient" x1="163.41" y1="-520" x2="163.41" y2="-581.9" gradientTransform="matrix(1, 0, 0, -1, 0, -358.44)" gradientUnits="userSpaceOnUse"><stop offset="0" stop-color="#2e5579"/><stop offset="1" stop-color="#1f3850"/></linearGradient><linearGradient id="linear-gradient-2" x1="207.89" y1="-413.16" x2="162.78" y2="-413.16" gradientTransform="matrix(1, 0, 0, -1, 0, -358.44)" gradientUnits="userSpaceOnUse"><stop offset="0" stop-color="#f7fbff"/><stop offset="1" stop-color="#dbe8f4"/></linearGradient><linearGradient id="linear-gradient-3" x1="235.9" y1="-427.12" x2="207.9" y2="-427.12" xlink:href="#linear-gradient-2"/></defs><path class="cls-1" d="M148.78,7.56l140,140-140,140-140-140Z"/><path class="cls-2" d="M163.41,32.45l3.83,79.94h-7.66Z"/><path class="cls-3" d="M84.51,223.46H55.45l37.37-58.13,14.47,22.52Z"/><path class="cls-4" d="M84.52,223.46l78.89-123.32,78.9,123.32Z"/><path class="cls-5" d="M163.41,100.14l-33.54,52.42,16.93,16.92,16.61-16.61L180,169.48,197,152.56Z"/><path class="cls-6" d="M208,77H165.55l-2.14-44.55H208Z"/><path class="cls-7" d="M228.24,91H208V46.41H235.9Z"/></svg>