<svg id="Layer_1" data-name="Layer 1" xmlns="http://www.w3.org/2000/svg" xmlns:xlink="http://www.w3.org/1999/xlink" viewBox="0 0 297.56 295.12"><defs><style>.cls-1{fill:#d0e1dc;}.cls-2{fill:url(#linear-gradient);}.cls-3,.cls-5{fill:none;stroke-linecap:square;stroke-miterlimit:216.67;stroke-width:7.78px;}.cls-3{stroke:#fff;}.cls-4{fill:url(#linear-gradient-2);}.cls-5{stroke:#526d65;}</style><linearGradient id="linear-gradient" x1="130.77" y1="242.55" x2="130.77" y2="79.21" gradientTransform="matrix(1, 0, 0, -1, 0, 295.22)" gradientUnits="userSpaceOnUse"><stop offset="0" stop-color="#89b5a8"/><stop offset="1" stop-color="#526d65"/></linearGradient><linearGradient id="linear-gradient-2" x1="194.29" y1="151.81" x2="194.29" y2="42.92" gradientTransform="matrix(1, 0, 0, -1, 0, 295.22)" gradientUnits="userSpaceOnUse"><stop offset="0" stop-color="#fff"/><stop offset="1" stop-color="#e7f0ee"/></linearGradient></defs><path class="cls-1" d="M148.78,7.56l140,140-140,140-140-140Z"/><path class="cls-2" d="M212.44,150.67V88.18L130.77,52.67,49.11,88.18v71l54.44,21.31V216l36.3-27.22V165.19l54.44-21.78Z"/><path class="cls-3" d="M112.63,101.15V90.26l18.14-11.77,18.15,11.77v18.15l-18.15,15.43v4.53m0,18.16v4.53"/><path class="cls-4" d="M139.85,165.19l54.44-21.78,54.45,21.78v46.28l-45.37,13.61V252.3L139.85,216Z"/><path class="cls-5" d="M194.29,166.1v22.68m0,18.15v4.54"/></svg>