<svg id="Layer_1" data-name="Layer 1" xmlns="http://www.w3.org/2000/svg" xmlns:xlink="http://www.w3.org/1999/xlink" viewBox="0 0 297.56 295.12"><defs><style>.cls-1{fill:#ffccc1;}.cls-2{fill:#fff;}.cls-3{fill:url(#linear-gradient);}.cls-4{fill:url(#linear-gradient-2);}.cls-5{fill:url(#linear-gradient-3);}.cls-6{fill:#663328;}.cls-10,.cls-7,.cls-8,.cls-9{fill:none;stroke-miterlimit:8.33;}.cls-7,.cls-8,.cls-9{stroke-width:7.04px;}.cls-7{stroke:url(#linear-gradient-4);}.cls-8{stroke:url(#linear-gradient-5);}.cls-9{stroke:url(#linear-gradient-6);}.cls-10{stroke:#ff8064;stroke-width:25.35px;}</style><linearGradient id="linear-gradient" x1="63.97" y1="211.15" x2="219.52" y2="211.15" gradientTransform="matrix(1, 0, 0, -1, 0, 295.22)" gradientUnits="userSpaceOnUse"><stop offset="0" stop-color="#ff9983"/><stop offset="1" stop-color="#cc6650"/></linearGradient><linearGradient id="linear-gradient-2" x1="63.97" y1="74.56" x2="233.52" y2="74.56" gradientTransform="matrix(1, 0, 0, -1, 0, 295.22)" gradientUnits="userSpaceOnUse"><stop offset="0" stop-color="#ffe6e0"/><stop offset="1" stop-color="#ffb3a2"/></linearGradient><linearGradient id="linear-gradient-3" x1="225.93" y1="228.66" x2="225.93" y2="68.37" gradientTransform="matrix(1, 0, 0, -1, 0, 295.22)" gradientUnits="userSpaceOnUse"><stop offset="0" stop-color="#ffb3a2"/><stop offset="1" stop-color="#ff8064"/></linearGradient><linearGradient id="linear-gradient-4" x1="107.45" y1="243.27" x2="107.45" y2="212.13" gradientTransform="matrix(1, 0, 0, -1, 0, 295.22)" gradientUnits="userSpaceOnUse"><stop offset="0" stop-color="#994d3c"/><stop offset="1" stop-color="#663328"/></linearGradient><linearGradient id="linear-gradient-5" x1="149.71" y1="243.27" x2="149.71" y2="212.13" xlink:href="#linear-gradient-4"/><linearGradient id="linear-gradient-6" x1="191.98" y1="243.27" x2="191.98" y2="212.13" xlink:href="#linear-gradient-4"/></defs><path class="cls-1" d="M148,6.75l140,140-140,140L8,146.75Z"/><path class="cls-2" d="M218.91,101.68H64V214.47H218.91Z"/><path class="cls-3" d="M64,101.68V66.47H218.91v35.21Z"/><path class="cls-4" d="M218.91,214.47H64l14,12.38H233Z"/><path class="cls-5" d="M218.91,214.47V66.56L233,79v147.9Z"/><path class="cls-6" d="M218.91,101.68V66.47L233,78.85v35.21Z"/><path class="cls-7" d="M115.73,66.54v-7L107.44,52,99.18,59.5V83.09"/><path class="cls-8" d="M158,66.54v-7L149.71,52l-8.26,7.55V83.09"/><path class="cls-9" d="M200.25,66.54v-7L192,52,183.7,59.5V83.09"/><path class="cls-10" d="M106.22,151.06l31.26,28.17,46.22-56.39"/></svg>